<?xml version="1.0" encoding="UTF-8"?>
<svg width="51px" height="40px" viewBox="-10 0 71 40" version="1.1" xmlns="http://www.w3.org/2000/svg" xmlns:xlink="http://www.w3.org/1999/xlink">
    <!-- Generator: Sketch 52.2 (67145) - http://www.bohemiancoding.com/sketch -->
    <title>identity/logo/olisto heart white</title>
    <desc>Created with Sketch.</desc>
    <g id="Branding" stroke="none" stroke-width="1" fill="none" fill-rule="evenodd">
        <g id="Olisto-Branding" transform="translate(-468.000000, -423.000000)" fill="#FFFFFF">
            <g id="identity/logo/olisto-heart-white" transform="translate(468.000000, 423.000000)">
                <path d="M20.9257038,11.6316941 L17.500882,8.20687222 C18.1330699,7.79482114 18.6693008,7.25576801 19.0799407,6.62358005 L22.508996,10.0526353 C21.876808,10.4632752 21.3377549,11.0009172 20.9257038,11.6316941 Z M42.6914556,11.6220984 L39.2666337,8.19727651 C39.8988217,7.78522543 40.4350526,7.2461723 40.8456925,6.61398434 L44.2747478,10.0430396 C43.6425598,10.4536795 43.1035067,10.9913215 42.6914556,11.6220984 Z M42.6659141,17.4994708 C43.0779651,18.1316588 43.6170183,18.6678896 44.2492062,19.0785296 L40.820151,22.5075848 C40.409511,21.876808 39.8732802,21.3377549 39.2410922,20.9242927 L42.6659141,17.4994708 Z M31.8137303,28.3448811 C32.2257814,28.9756579 32.7648345,29.5132999 33.3970225,29.9239399 L29.9679673,33.3529951 C29.5573273,32.7222183 29.0210965,32.181754 28.3889085,31.769703 L31.8137303,28.3448811 Z M36.3028293,21.7356946 C38.34474,21.7356946 40.0014111,23.3909546 40.0014111,25.4342764 C40.0014111,27.4761871 38.34474,29.1314471 36.3028293,29.1314471 C34.2609186,29.1314471 32.6042475,27.4761871 32.6042475,25.4342764 C32.6042475,24.8218444 32.767939,24.2517463 33.0318211,23.7437381 L27.1248148,17.8367318 C26.6168066,18.1006138 26.0467085,18.2643054 25.4342764,18.2643054 C24.8218444,18.2643054 24.2531574,18.1006138 23.7451492,17.8367318 L17.8381429,23.7437381 C18.102025,24.2517463 18.2657165,24.8218444 18.2657165,25.4342764 C18.2657165,26.0467085 18.102025,26.6153955 17.8381429,27.1234037 L23.7451492,33.0304099 C24.2531574,32.7665279 24.8218444,32.6028364 25.4342764,32.6028364 C27.4775983,32.6028364 29.1328583,34.2595075 29.1328583,36.3014182 C29.1328583,38.34474 27.4775983,40 25.4342764,40 C23.3923658,40 21.7371058,38.34474 21.7371058,36.3014182 C21.7371058,35.6889861 21.8993862,35.118888 22.1632682,34.6108798 L16.2562619,28.7052847 C15.7482537,28.9691667 15.1795668,29.1314471 14.5671347,29.1314471 C12.5238129,29.1314471 10.8685529,27.4761871 10.8685529,25.4342764 C10.8685529,24.8218444 11.0322444,24.2517463 11.2947153,23.7437381 L5.38912016,17.8367318 C4.87970084,18.102025 4.3110139,18.2643054 3.69999294,18.2643054 C1.65667114,18.2643054 0,16.6076342 0,14.5657236 C0,12.5238129 1.65667114,10.8685529 3.69999294,10.8685529 C4.30960277,10.8685529 4.87687857,11.0294221 5.38488676,11.2933042 L11.2961264,5.39053129 C11.0322444,4.88252311 10.8685529,4.3110139 10.8685529,3.69858181 C10.8685529,1.65526 12.5238129,0 14.5671347,0 C16.6090454,0 18.2657165,1.65526 18.2657165,3.69858181 C18.2657165,5.74049249 16.6090454,7.39575249 14.5671347,7.39575249 C13.9561137,7.39575249 13.3874268,7.23488323 12.8794186,6.9710012 L6.96817893,12.8723629 C7.23347209,13.3817823 7.39716362,13.9518803 7.39716362,14.5657236 C7.39716362,15.1795668 7.23347209,15.7482537 6.96959007,16.2562619 L12.8765963,22.1632682 C13.3846045,21.897975 13.9547026,21.7356946 14.5671347,21.7356946 C15.1795668,21.7356946 15.7482537,21.897975 16.2562619,22.1618571 L22.1632682,16.2562619 C21.8993862,15.7468426 21.7371058,15.1781556 21.7371058,14.5657236 C21.7371058,12.5238129 23.3923658,10.8685529 25.4342764,10.8685529 C26.0467085,10.8685529 26.6153955,11.0308333 27.1248148,11.2947153 L33.0304099,5.38770902 C32.767939,4.87970084 32.6042475,4.30960277 32.6042475,3.69858181 C32.6042475,1.65526 34.2609186,0 36.3028293,0 C38.34474,0 40.0014111,1.65526 40.0014111,3.69858181 C40.0014111,5.74049249 38.34474,7.39575249 36.3028293,7.39575249 C35.6903972,7.39575249 35.1217103,7.23347209 34.612291,6.96959007 L28.7066958,12.8751852 C28.9705779,13.3831934 29.1328583,13.9532915 29.1328583,14.5657236 C29.1328583,15.1795668 28.9705779,15.7482537 28.7066958,16.2562619 L34.612291,22.1618571 C35.1217103,21.897975 35.6903972,21.7356946 36.3028293,21.7356946 Z M47.1708178,10.8682707 C49.2127284,10.8682707 50.8693996,12.5235307 50.8693996,14.5654413 C50.8693996,16.607352 49.2127284,18.2640231 47.1708178,18.2640231 C45.1274959,18.2640231 43.4722359,16.607352 43.4722359,14.5654413 C43.4722359,12.5235307 45.1274959,10.8682707 47.1708178,10.8682707 Z" id="olisto-heart-white"></path>
            </g>
        </g>
    </g>
</svg>
